<svg id="Layer_1" data-name="Layer 1" xmlns="http://www.w3.org/2000/svg" viewBox="0 0 129.57 38.57"><defs><style>.cls-1{font-size:27.41px;fill:#5782c2;font-family:Cairo-Black, Cairo;font-weight:800;}.cls-2{fill:#5983c3;}</style></defs><title>Heakth</title><text class="cls-1" transform="translate(35.11 22.92)">HEALTH</text><path class="cls-2" d="M97.86,49,100,44.25a.78.78,0,0,1,.74-.46.76.76,0,0,1,.7.52l3.43,9.5,3.22-7a.78.78,0,0,1,.58-.45.8.8,0,0,1,.7.25L111.53,49h6.58a10.73,10.73,0,0,0,.81-7.43,7.79,7.79,0,0,0-7.45-5.63,8.11,8.11,0,0,0-1.47.13,6.92,6.92,0,0,0-4.67,3,8.3,8.3,0,0,0-.54,1,7,7,0,0,0-.53-1,6.92,6.92,0,0,0-4.67-3,8.11,8.11,0,0,0-1.47-.13,7.78,7.78,0,0,0-7.45,5.63A10.73,10.73,0,0,0,91.48,49Z" transform="translate(-90.34 -34.72)"/><path class="cls-2" d="M111.19,50.56a.79.79,0,0,1-.58-.25L109,48.56l-3.52,7.63a.77.77,0,0,1-.71.45h0a.78.78,0,0,1-.7-.51l-3.42-9.49L99.08,50.1a.79.79,0,0,1-.71.46H92.28c2.22,3.82,6.28,7.65,12.09,11.38a.81.81,0,0,0,.42.12.82.82,0,0,0,.43-.12c5.8-3.73,9.87-7.56,12.09-11.38Z" transform="translate(-90.34 -34.72)"/></svg>